<?xml version="1.0" encoding="UTF-8" standalone="no"?>
<!-- Created with Inkscape (http://www.inkscape.org/) -->

<svg
   version="1.1"
   id="svg1"
   width="353.33334"
   height="376"
   viewBox="0 0 353.33334 376"
   sodipodi:docname="فایکون سایت.svg"
   inkscape:version="1.4.4 (dcaf3e7, 2026-05-05)"
   inkscape:export-filename="favicon.png"
   inkscape:export-xdpi="7.6075468"
   inkscape:export-ydpi="7.6075468"
   xmlns:inkscape="http://www.inkscape.org/namespaces/inkscape"
   xmlns:sodipodi="http://sodipodi.sourceforge.net/DTD/sodipodi-0.dtd"
   xmlns="http://www.w3.org/2000/svg"
   xmlns:svg="http://www.w3.org/2000/svg">
  <sodipodi:namedview
     id="namedview1"
     pagecolor="#ffffff"
     bordercolor="#000000"
     borderopacity="0.25"
     inkscape:showpageshadow="2"
     inkscape:pageopacity="0.0"
     inkscape:pagecheckerboard="0"
     inkscape:deskcolor="#d1d1d1"
     inkscape:zoom="1.2260638"
     inkscape:cx="176.58134"
     inkscape:cy="188"
     inkscape:window-width="1024"
     inkscape:window-height="705"
     inkscape:window-x="-8"
     inkscape:window-y="-8"
     inkscape:window-maximized="1"
     inkscape:current-layer="g1">
    <inkscape:page
       x="0"
       y="0"
       width="353.33334"
       height="376"
       id="page2"
       margin="0"
       bleed="0" />
  </sodipodi:namedview>
  <defs
     id="defs1" />
  <g
     id="g1">
    <rect
       style="fill:#ffffff;fill-opacity:1"
       id="rect1"
       width="352.34708"
       height="375.18439"
       x="0.81561822"
       y="0.81561822" />
    <path
       style="fill:#000000;fill-opacity:1"
       d="m 298.13076,351.16229 c -1.94422,-2.09126 -7.12381,-10.64126 -11.51019,-19 -5.01808,-9.56252 -10.59895,-17.98146 -15.05119,-22.70527 -4.561,-4.8392 -9.78267,-8.71931 -14.69143,-10.91689 -4.18851,-1.87513 -10.68979,-3.81398 -14.44729,-4.30857 -6.83182,-0.89925 -6.83182,-0.89925 -10,5.51209 -1.7425,3.52623 -5.12769,8.383 -7.52265,10.79282 -2.39496,2.40981 -6.29496,5.44197 -8.66667,6.73812 -3.34833,1.82989 -7.44149,2.35665 -18.3122,2.35665 -13.31498,0 -14.42308,-0.22071 -22.64672,-4.51072 -4.75569,-2.4809 -12.60373,-8.3309 -17.44008,-13 -7.35303,-7.09876 -9.54027,-8.48394 -13.35328,-8.45669 -2.50796,0.0179 -7.25992,0.633 -10.55992,1.36683 -3.3,0.73382 -9,2.5838 -12.66667,4.11106 -3.66666,1.52726 -11.46666,5.95551 -17.33332,9.84055 -6.153302,4.07486 -18.107562,14.45125 -28.252082,24.52302 -14.80577,14.69958 -18.22565,17.45928 -21.63593,17.45928 -2.88845,0 -4.70072,-0.99233 -6.31686,-3.45886 -2.14744,-3.27741 -2.13346,-3.70561 0.26639,-8.16187 1.39301,-2.58665 10.04903,-11.89007 19.2356,-20.67427 9.18658,-8.7842 21.50924,-19.17111 27.38368,-23.08203 5.874442,-3.91091 13.674442,-8.41326 17.333332,-10.0052 3.65889,-1.59195 10.55253,-3.98672 15.31919,-5.32172 4.76667,-1.335 13.03349,-2.85193 18.3707,-3.37096 9.70404,-0.94368 9.70404,-0.94368 20.66667,10.39006 8.93022,9.23252 12.39327,11.86067 18.67932,14.17596 4.24417,1.56323 10.54417,2.83998 14,2.83724 3.91548,-0.003 7.9209,-1.00343 10.62884,-2.65448 2.39003,-1.45722 5.53779,-4.60498 6.99501,-6.99501 1.45722,-2.39004 2.65174,-6.0228 2.65448,-8.0728 0.003,-2.22243 1.39182,-5.1141 3.43998,-7.16226 3.26394,-3.26394 3.9113,-3.38935 13,-2.51848 5.26075,0.50408 12.86501,1.84432 16.89834,2.9783 4.03333,1.13399 10.73805,3.85403 14.89936,6.04455 4.16132,2.19051 10.20635,6.51262 13.4334,9.60469 3.22706,3.09206 7.68284,8.2826 9.90174,11.53453 2.2189,3.25194 7.21191,11.91261 11.09558,19.24595 3.88368,7.33333 7.87319,14.51683 8.86558,15.96334 0.99239,1.4465 1.80434,3.42378 1.80434,4.39394 0,0.97016 -1.47273,3.23666 -3.27273,5.03666 -1.8,1.8 -4.25927,3.27272 -5.46505,3.27272 -1.20578,0 -3.78305,-1.71103 -5.72727,-3.80228 z M 173.92914,277.64694 c -4.76667,-1.27214 -12.02308,-3.82168 -16.12537,-5.66566 -4.10229,-1.84398 -11.61711,-6.09226 -16.69961,-9.44063 -5.0825,-3.34836 -13.4924,-10.47277 -18.68867,-15.83201 -5.19626,-5.35924 -11.80925,-13.39804 -14.69553,-17.86401 -2.88627,-4.46598 -6.95405,-13.46598 -9.039512,-20 -2.08545,-6.53403 -4.18563,-12.72077 -4.66706,-13.7483 -0.48143,-1.02754 -3.8268,-2.61766 -7.43416,-3.5336 -3.98802,-1.0126 -7.7526,-3.0532 -9.60446,-5.20611 -2.20879,-2.56788 -3.04563,-5.21092 -3.04563,-9.61929 0,-4.06609 1.17954,-8.24575 3.56276,-12.6245 2.28051,-4.19005 4.71524,-6.8352 6.76499,-7.34966 1.76123,-0.44204 4.65799,-0.14042 6.43724,0.67026 2.48181,1.13079 3.23501,2.50783 3.23501,5.91439 0,2.44222 -0.85038,5.60338 -1.88975,7.0248 -1.19328,1.63191 -1.43596,3.13118 -0.65848,4.06799 0.88195,1.06268 2.92673,1.09562 7.20723,0.11611 5.025072,-1.1499 6.372572,-1.00854 8.468662,0.88838 1.82691,1.65334 2.68732,4.82901 3.22131,11.88957 0.40072,5.29852 1.86801,13.00876 3.26063,17.13385 1.39262,4.12509 4.60017,10.91682 7.12789,15.09272 2.52771,4.17591 8.49584,11.55654 13.26251,16.4014 4.76667,4.84486 12.56667,11.29593 17.33333,14.33572 4.76667,3.03979 11.66667,6.77907 15.33334,8.30951 3.66666,1.53045 10.435,3.51847 15.04075,4.41782 4.60574,0.89936 11.98964,1.30735 16.40867,0.90665 4.67525,-0.42394 11.04283,-2.20034 15.22941,-4.24865 4.10513,-2.00845 9.84833,-6.47145 13.37397,-10.39281 3.39854,-3.77999 7.69143,-9.85703 9.53975,-13.50451 1.84832,-3.64749 4.22989,-9.07455 5.29236,-12.06013 1.06248,-2.98558 2.72659,-9.18707 3.69803,-13.78108 1.01747,-4.81173 1.25724,-8.66734 0.56559,-9.0948 -0.66037,-0.40813 -3.35771,-0.0302 -5.99411,0.83993 -2.63639,0.87008 -7.62058,1.58198 -11.07597,1.58198 -3.45539,0 -8.03661,-0.91804 -10.18049,-2.04009 -2.14388,-1.12205 -5.96566,-4.19128 -8.49285,-6.82051 -2.52719,-2.62924 -5.28088,-4.78043 -6.11931,-4.78043 -0.83844,0 -2.17422,1.42615 -2.96842,3.16922 -0.79419,1.74306 -3.43614,5.43814 -5.87098,8.21127 -2.43485,2.77314 -7.43136,6.44113 -11.10336,8.1511 -3.67201,1.70996 -8.77638,3.10903 -11.34304,3.10903 -2.56667,0 -7.66667,-1.40323 -11.33334,-3.11828 -3.66666,-1.71505 -9.17404,-5.84954 -12.23861,-9.18776 -3.06457,-3.33821 -6.74838,-8.37913 -8.18625,-11.20203 -1.43787,-2.8229 -3.58049,-8.39145 -4.76139,-12.37455 -1.18089,-3.9831 -2.14708,-10.41059 -2.14708,-14.28332 0,-3.87272 1.24694,-10.37407 2.77099,-14.44744 2.60957,-6.97471 3.25034,-7.62758 11,-11.20772 5.96418,-2.7553 11.16474,-4.01172 18.89568,-4.56505 5.86666,-0.4199 20.26667,-1.47017 32,-2.33393 11.73333,-0.86375 27.44375,-1.23511 34.91203,-0.82523 8.73157,0.47921 15.15696,1.54196 18,2.97718 2.43172,1.22757 6.12625,3.81344 8.21008,5.74639 2.08383,1.93295 4.93383,5.74055 6.33333,8.46134 1.7819,3.46419 2.54456,7.7114 2.54456,14.1705 0,5.07299 -0.82171,11.24689 -1.82601,13.71978 -1.00431,2.47289 -2.16748,9.89617 -2.58482,16.49617 -0.41733,6.6 -1.98415,17.10695 -3.48181,23.34877 -1.49766,6.24183 -4.19745,15.11107 -5.99953,19.70942 -1.80208,4.59835 -4.61684,10.5914 -6.25502,13.31789 -1.63818,2.72649 -5.56725,8.04362 -8.73128,11.81585 -3.16403,3.77222 -8.91075,8.95306 -12.77049,11.51296 -3.85974,2.5599 -11.13091,5.92354 -16.15815,7.47474 -6.09109,1.87946 -12.31851,2.76399 -18.66667,2.65137 -5.23942,-0.093 -13.42622,-1.20984 -18.19289,-2.48197 z m 5.46949,-84.40064 c 2.49178,-1.67838 5.88638,-5.50752 7.54355,-8.50919 1.65717,-3.00168 3.68155,-8.78642 4.49864,-12.85497 0.84594,-4.21226 1.08602,-10.59546 0.55759,-14.82493 -0.51041,-4.08517 -1.86216,-8.36172 -3.0039,-9.50345 -1.14173,-1.14174 -2.92384,-1.75049 -3.96024,-1.35278 -1.0364,0.3977 -8.52912,1.12667 -16.65049,1.61993 -14.76613,0.89683 -14.76613,0.89683 -16.61038,5.31075 -1.01434,2.42766 -1.83714,6.3832 -1.82843,8.79009 0.009,2.40689 0.82615,7.37616 1.81656,11.04282 0.9904,3.66667 3.16091,8.94779 4.82334,11.73582 1.66243,2.78803 5.18426,6.53803 7.82628,8.33333 2.64203,1.7953 6.07567,3.26419 7.63033,3.26419 1.55465,0 4.86537,-1.37322 7.35715,-3.05161 z m 55.57334,-7.01912 c 2.72644,-1.13891 6.68306,-3.68891 8.79248,-5.66667 2.10942,-1.97777 5.25355,-6.59594 6.98697,-10.2626 1.73342,-3.66667 3.15529,-8.16667 3.15971,-10 0.004,-1.83334 -1.16107,-5.25074 -2.58998,-7.59422 -1.42892,-2.34349 -4.05141,-5.21319 -5.82777,-6.3771 -2.58649,-1.69473 -6.38328,-2.0411 -19.06365,-1.73911 -15.83392,0.37709 -15.83392,0.37709 -15.82146,10.37709 0.01,7.9348 0.72115,11.51617 3.44401,17.34145 1.88736,4.0378 5.3779,9.2878 7.75677,11.66667 2.37887,2.37887 5.19834,4.32522 6.26548,4.32522 1.06715,0 4.17099,-0.93183 6.89744,-2.07073 z M 93.396938,145.29791 c -1.84117,-1.65 -4.57463,-6.73108 -6.07435,-11.29128 -2.01596,-6.12988 -2.72678,-11.78453 -2.72678,-21.6917 0,-10.75901 0.63887,-15.229022 3.24108,-22.677125 1.7826,-5.102176 5.39273,-12.518287 8.02253,-16.480247 2.6298,-3.96196 7.695422,-9.929234 11.256922,-13.260608 3.56151,-3.331375 10.00137,-7.817634 14.3108,-9.969466 4.30943,-2.151831 9.44915,-4.30113 11.42158,-4.77622 2.68906,-0.647699 4.51688,-0.0633 7.3062,2.335967 3.24224,2.788861 3.55221,3.673877 2.41375,6.891724 -0.9747,2.754981 -3.84408,4.97097 -11.3062,8.731626 -6.29396,3.17195 -12.17513,7.414181 -15.86916,11.446827 -3.22804,3.523939 -7.53368,9.915601 -9.5681,14.203694 -2.03441,4.288093 -4.38975,11.892148 -5.23408,16.897908 -1.279392,7.58508 -1.186182,10.39566 0.55947,16.87014 1.15204,4.27282 2.81817,10.3027 3.70251,13.39975 1.49459,5.23417 1.38485,5.86841 -1.55711,9 -1.74077,1.85295 -3.926982,3.36901 -4.858262,3.36901 -0.93127,0 -3.19963,-1.35 -5.0408,-3 z m 159.509992,-24.3305 c -2.39556,-1.04104 -9.29556,-5.71031 -15.33334,-10.37618 -6.03778,-4.66586 -13.54626,-9.79062 -16.68551,-11.388358 -3.13924,-1.597733 -6.81578,-2.904969 -8.17007,-2.904969 -1.35429,0 -3.24212,0.939562 -4.19516,2.087915 -0.95305,1.148354 -3.41748,2.959082 -5.4765,4.023852 -3.0054,1.55415 -4.25855,1.61439 -6.35449,0.30545 -1.43595,-0.89676 -2.94446,-2.959816 -3.35224,-4.584563 -0.40779,-1.624748 -0.38985,-3.870306 0.0399,-4.99013 0.42972,-1.119824 2.97918,-3.717502 5.66548,-5.772617 4.34867,-3.326921 5.98048,-3.736574 14.88414,-3.736574 8.2436,0 10.93675,0.569863 15.33334,3.244498 2.93333,1.784475 9.53333,6.414815 14.66666,10.289645 5.13334,3.874831 9.91809,7.559561 10.63279,8.188291 0.74332,0.65391 2.82348,0.26848 4.86045,-0.90058 2.88463,-1.65555 4.22061,-1.74318 7.03388,-0.46137 2.98409,1.35964 3.47288,2.41723 3.47288,7.51416 0,4.82014 -0.65839,6.44971 -3.51314,8.69525 -1.93223,1.5199 -4.78223,2.73996 -6.33333,2.71125 -1.55111,-0.0287 -4.78019,-0.90394 -7.17574,-1.94497 z M 156.69258,80.784758 c -1.51989,-1.93223 -2.76344,-3.942207 -2.76344,-4.466616 0,-0.524408 1.73027,-3.293493 3.84504,-6.153521 2.11477,-2.860029 6.76477,-7.96176 10.33333,-11.33718 3.56857,-3.375421 10.3883,-9.324591 15.15497,-13.220378 4.76666,-3.895786 11.66666,-8.406597 15.33333,-10.024023 3.66667,-1.617427 8.56646,-3.354903 10.88843,-3.861058 2.32197,-0.506156 6.67625,-0.259359 9.67617,0.548438 3.03389,0.816942 7.52404,3.538348 10.11812,6.132426 2.56504,2.565038 6.53676,8.39076 8.82604,12.946048 2.28928,4.555288 5.34869,9.962529 6.79868,12.016091 2.57749,3.650391 2.84056,3.713627 11.78335,2.832426 8.89617,-0.876606 9.18953,-0.808014 10.69733,2.501262 0.85268,1.871422 1.19287,4.826786 0.75599,6.567477 -0.46547,1.854563 -2.68804,4.067933 -5.36827,5.346045 -2.51566,1.199634 -6.76024,2.591308 -9.4324,3.092608 -3.28143,0.615601 -6.78191,0.176888 -10.78411,-1.351564 -3.34595,-1.277831 -7.23899,-4.069031 -8.94248,-6.411501 -1.65927,-2.281665 -5.41685,-8.647675 -8.35018,-14.14669 -2.93334,-5.499015 -6.85644,-11.107876 -8.718,-12.464135 -3.20184,-2.332724 -3.66999,-2.34683 -8.66667,-0.261147 -2.9051,1.212628 -7.682,4.043486 -10.61533,6.290794 -2.93334,2.247308 -11.09929,9.677564 -18.14657,16.511679 -9.40985,9.125224 -13.72252,12.425664 -16.23656,12.425664 -2.11019,0 -4.48335,-1.347596 -6.18677,-3.513145 z"
       id="path52" />
  </g>
</svg>
